<?xml version="1.0" encoding="UTF-8" standalone="no"?>
<!DOCTYPE svg PUBLIC "-//W3C//DTD SVG 20010904//EN" "http://www.w3.org/TR/2001/REC-SVG-20010904/DTD/svg10.dtd">
<svg version="1.0" xmlns="http://www.w3.org/2000/svg" width="900.000000pt" height="873.000000pt" viewBox="0 0 900.000000 873.000000" preserveAspectRatio="xMidYMid meet">
<metadata>
Created by potrace 1.10, written by Peter Selinger 2001-2011
</metadata>
<g transform="translate(0.000000,873.000000) scale(0.100000,-0.100000)" fill="#ffffff" stroke="none">
<path d="M3921 6693 c-219 -220 -379 -374 -393 -377 -53 -10 -168 -25 -238 -31 -101 -8 -372 -70 -492 -111 -227 -79 -333 -188 -426 -439 -139 -375 -190 -1166 -121 -1905 13 -143 39 -301 78 -470 41 -179 156 -397 244 -462 123 -90 448 -193 747 -234 334 -47 425 -53 865 -60 328 -5 439 -3 615 11 394 31 556 56 825 126 223 57 355 121 435 208 92 100 185 338 230 586 53 294 64 452 64 945 0 495 -13 669 -68 965 -50 268 -151 503 -257 599 -87 78 -253 146 -466 191 -65 13 -138 29 -163 35 -25 6 -94 15 -155 20 -60 6 -134 14 -164 18 l-53 9 -369 374 -368 374 -370 -372z m696 -265 l313 -312 87 -9 c49 -5 102 -10 118 -12 94 -8 279 -41 370 -66 222 -60 375 -170 450 -324 64 -132 111 -320 144 -575 6 -47 16 -123 21 -170 6 -47 12 -221 13 -388 l2 -304 -24 -19 c-28 -23 -106 -25 -371 -8 -223 14 -216 12 -228 51 -5 18 -18 60 -27 93 -21 69 -88 181 -148 243 -58 61 -138 113 -232 152 -71 29 -93 33 -200 38 -143 5 -205 -8 -326 -69 -81 -40 -174 -123 -252 -222 -34 -44 -58 -40 -91 17 -34 59 -143 158 -218 199 -112 62 -157 72 -313 72 -139 0 -141 0 -229 -37 -142 -59 -227 -127 -301 -238 -44 -65 -95 -189 -95 -228 0 -9 -7 -27 -15 -38 -15 -23 16 -20 -417 -40 -173 -9 -194 -2 -204 65 -20 129 17 773 55 971 34 175 102 389 151 475 61 105 171 192 321 250 80 32 261 74 369 86 47 5 110 14 141 19 30 6 77 10 103 10 26 0 57 5 69 11 12 5 157 147 322 315 165 167 307 304 315 304 8 0 155 -141 327 -312z m-789 -1774 c144 -42 262 -141 325 -274 27 -57 31 -78 35 -170 6 -167 -28 -253 -150 -372 -193 -188 -476 -184 -675 11 -101 98 -133 180 -133 341 0 88 4 116 24 167 47 119 124 204 241 262 103 52 229 65 333 35z m1173 0 c168 -49 301 -183 345 -349 18 -65 18 -188 0 -245 -31 -100 -57 -143 -129 -214 -61 -61 -85 -77 -157 -106 -113 -45 -209 -51 -310 -21 -162 49 -275 151 -332 297 -30 78 -32 241 -4 324 51 149 198 283 351 319 64 15 177 12 236 -5z m-1918 -652 c9 -10 22 -34 29 -53 49 -143 158 -258 324 -340 l109 -54 155 0 c151 0 157 1 231 31 130 54 221 124 301 232 44 59 68 65 95 25 10 -15 52 -62 93 -103 63 -64 92 -85 185 -130 l110 -55 155 1 c152 0 157 0 238 33 156 62 270 169 347 323 l51 103 274 2 c323 3 323 3 328 -72 12 -162 -92 -603 -175 -744 -97 -166 -283 -265 -603 -321 -171 -29 -249 -40 -375 -50 -77 -6 -176 -15 -220 -20 -123 -15 -723 -12 -945 5 -624 47 -939 136 -1081 307 -50 61 -99 150 -120 217 -77 258 -103 383 -115 552 -10 138 -32 129 310 129 261 0 284 -1 299 -18z"/>
<path d="M3650 4344 c-118 -74 -69 -265 68 -264 89 2 149 116 106 205 -31 67 -116 95 -174 59z"/>
<path d="M4775 4327 c-35 -31 -39 -38 -42 -93 -4 -69 8 -99 56 -131 71 -48 155 -15 190 74 20 50 6 101 -40 145 -33 32 -47 38 -83 38 -34 0 -50 -7 -81 -33z"/>
<path d="M4330 3269 c-564 -27 -643 -33 -647 -45 -4 -11 72 -51 172 -91 343 -139 704 -108 898 77 51 49 59 61 47 70 -18 12 2 12 -470 -11z"/>
<path d="M6024 2618 c-7 -11 25 -48 41 -48 12 0 25 21 25 40 0 11 -60 18 -66 8z"/>
<path d="M2505 2351 c-59 -16 -82 -30 -113 -65 -81 -93 -29 -216 111 -261 93 -30 119 -61 81 -99 -36 -37 -112 -12 -164 54 -65 82 -109 34 -64 -71 19 -43 41 -55 135 -71 126 -20 250 16 285 85 32 60 35 87 15 132 -23 51 -56 76 -144 105 -76 25 -106 55 -88 88 22 41 67 33 140 -22 58 -44 99 -26 87 37 -9 49 -41 73 -106 80 -30 3 -75 8 -100 11 -25 3 -58 1 -75 -3z"/>
<path d="M3390 2353 c-14 -2 -49 -11 -77 -19 -42 -12 -53 -20 -53 -36 0 -11 8 -27 18 -34 15 -11 17 -31 17 -158 0 -136 -2 -148 -25 -191 -23 -43 -24 -46 -7 -62 14 -14 35 -18 102 -18 108 0 123 12 106 79 -14 56 -14 151 -1 177 15 27 47 24 67 -8 22 -33 23 -100 3 -166 -13 -42 -12 -49 2 -63 30 -30 162 -30 203 0 17 13 17 15 -3 57 -14 30 -23 75 -28 143 -6 89 -10 102 -32 123 -20 18 -36 23 -83 23 -48 0 -63 -5 -89 -26 -18 -16 -35 -23 -40 -18 -5 5 -10 52 -12 104 -3 103 -4 105 -68 93z"/>
<path d="M4870 2353 c-64 -11 -129 -35 -134 -50 -4 -9 2 -25 12 -37 37 -40 42 -64 42 -183 0 -107 -2 -122 -25 -162 -14 -23 -25 -47 -25 -53 0 -17 68 -38 123 -38 30 0 76 7 102 15 38 11 53 11 69 2 24 -13 215 -16 259 -4 35 10 36 41 2 63 -40 26 -56 130 -24 150 19 11 50 -9 64 -42 8 -19 21 -34 29 -34 44 0 64 152 26 190 -23 23 -43 18 -58 -14 -13 -29 -47 -39 -63 -19 -12 14 -14 81 -4 114 14 44 117 30 171 -22 54 -52 92 -26 80 55 -10 62 -33 77 -101 66 -70 -12 -180 -12 -269 0 -86 12 -116 4 -116 -34 0 -13 9 -31 20 -41 27 -24 40 -76 40 -161 0 -97 -16 -173 -42 -201 -28 -30 -43 -29 -75 3 l-26 26 5 199 c5 185 4 200 -13 209 -18 10 -26 11 -69 3z"/>
<path d="M3005 2200 c-140 -22 -212 -179 -130 -286 54 -70 129 -95 227 -75 63 13 101 43 96 74 -3 20 -8 22 -69 19 -63 -4 -67 -3 -91 27 -33 39 -43 82 -28 126 16 48 56 49 85 2 22 -35 67 -47 105 -27 33 17 27 72 -11 104 -17 14 -40 28 -52 30 -49 10 -94 12 -132 6z"/>
<path d="M3969 2200 c-91 -16 -155 -71 -179 -153 -11 -41 -10 -53 4 -92 33 -86 121 -134 221 -120 98 13 171 61 201 133 8 17 18 32 22 32 5 0 19 -23 32 -51 31 -65 67 -95 134 -110 142 -31 297 63 296 181 -1 69 -52 146 -113 169 -46 18 -160 13 -209 -8 -49 -21 -75 -47 -108 -108 -26 -46 -38 -53 -46 -25 -24 82 -96 152 -155 152 -15 0 -33 2 -41 4 -7 2 -34 0 -59 -4z m56 -92 c13 -23 20 -58 23 -115 4 -72 2 -84 -13 -89 -30 -12 -49 10 -67 82 -22 86 -22 113 -1 136 23 26 36 23 58 -14z m478 -6 c26 -45 35 -173 14 -191 -30 -24 -50 -9 -69 54 -24 79 -24 151 0 164 24 14 34 9 55 -27z"/>
<path d="M6115 2204 c-11 -3 -30 -7 -42 -9 -34 -8 -84 -55 -104 -100 -51 -111 14 -240 131 -260 48 -8 135 9 178 35 57 35 31 86 -28 55 -45 -23 -83 -19 -114 14 -16 16 -26 37 -24 48 3 16 16 19 101 23 109 6 121 13 113 69 -7 46 -30 78 -74 100 -40 20 -105 32 -137 25z m57 -61 c37 -33 14 -88 -34 -81 -30 4 -39 65 -12 85 23 16 24 16 46 -4z"/>
<path d="M5579 2172 c-43 -22 -55 -34 -57 -55 -3 -25 -1 -27 32 -27 25 0 45 9 69 30 40 35 62 38 77 11 27 -51 1 -85 -74 -95 -61 -8 -110 -37 -126 -77 -18 -42 7 -95 55 -115 42 -17 69 -17 120 1 35 13 45 13 82 -1 36 -14 47 -14 84 -3 57 19 69 40 47 80 -13 22 -18 53 -18 112 0 131 -34 166 -161 167 -65 0 -85 -4 -130 -28z m130 -194 c10 -27 4 -48 -17 -65 -30 -24 -54 24 -36 71 9 24 43 19 53 -6z"/>
</g>
</svg>