<?xml version="1.0" encoding="UTF-8" standalone="no"?>
<!DOCTYPE svg PUBLIC "-//W3C//DTD SVG 20010904//EN" "http://www.w3.org/TR/2001/REC-SVG-20010904/DTD/svg10.dtd">
<svg version="1.0" xmlns="http://www.w3.org/2000/svg" width="300.000000pt" height="291.000000pt" viewBox="0 0 300.000000 291.000000" preserveAspectRatio="xMidYMid meet">
<metadata>
Created by potrace 1.10, written by Peter Selinger 2001-2011
</metadata>
<g transform="translate(0.000000,291.000000) scale(0.100000,-0.100000)" fill="#0d6786" stroke="none">
<path d="M1310 2236 l-125 -126 -79 -11 c-93 -12 -188 -41 -234 -69 -44 -27 -86 -118 -108 -235 -27 -136 -24 -484 4 -618 38 -180 80 -225 247 -266 260 -65 757 -48 935 30 56 25 77 44 102 93 55 108 72 238 65 519 -5 243 -21 336 -72 424 -39 65 -126 101 -295 123 l-75 10 -120 126 -120 125 -125 -125z m230 -91 c85 -83 113 -105 136 -106 16 0 38 -2 49 -4 11 -2 36 -7 55 -10 123 -21 188 -66 220 -151 27 -75 50 -233 50 -353 0 -83 -3 -100 -16 -105 -10 -4 -57 -3 -105 0 -66 5 -89 10 -89 21 0 8 -9 30 -19 51 -73 141 -253 164 -357 45 l-32 -36 -33 38 c-68 77 -164 95 -257 49 -56 -28 -85 -61 -106 -121 l-13 -38 -88 -8 c-48 -4 -94 -6 -102 -3 -17 7 -18 188 -2 303 32 232 97 294 334 319 l60 6 99 104 c55 57 102 104 105 104 3 0 53 -47 111 -105z m-212 -612 c99 -73 96 -201 -7 -270 -71 -48 -189 -14 -226 63 -39 84 0 188 85 223 37 16 117 7 148 -16z m398 -8 c119 -91 55 -285 -95 -285 -148 1 -217 176 -109 277 55 52 142 55 204 8z m-677 -222 c38 -75 102 -113 187 -113 68 0 135 28 166 71 27 36 33 36 65 -1 43 -52 96 -73 174 -68 83 4 141 40 173 105 l21 42 104 1 103 0 -7 -67 c-4 -37 -16 -96 -26 -130 -51 -164 -150 -198 -574 -198 -214 0 -275 3 -345 18 -101 22 -161 49 -188 87 -30 40 -62 145 -69 223 l-6 67 101 0 102 0 19 -37z"/>
<path d="M1218 1449 c-25 -14 -24 -65 2 -79 14 -8 26 -8 40 0 27 14 27 65 1 80 -23 12 -22 12 -43 -1z"/>
<path d="M1598 1449 c-25 -14 -24 -65 2 -79 42 -23 82 25 55 66 -17 26 -30 29 -57 13z"/>
<path d="M1380 1089 c-168 -8 -160 -7 -127 -25 112 -61 260 -58 330 6 l32 29 -50 -1 c-27 -1 -111 -5 -185 -9z"/>
<path d="M2010 876 c0 -2 7 -9 15 -16 13 -11 14 -10 9 4 -5 14 -24 23 -24 12z"/>
<path d="M812 774 c-41 -28 -22 -81 36 -98 26 -8 30 -36 5 -36 -9 0 -27 10 -40 22 -27 25 -41 18 -25 -16 20 -45 115 -41 142 6 17 32 5 52 -48 74 -28 11 -33 17 -24 26 10 10 17 10 32 0 26 -16 40 -15 40 3 0 32 -81 45 -118 19z"/>
<path d="M1110 784 c-23 -7 -22 -162 1 -169 34 -11 49 5 49 51 0 24 4 44 9 44 14 0 23 -35 16 -63 -7 -28 13 -41 51 -31 19 5 22 9 14 24 -6 10 -10 35 -10 54 0 30 -4 37 -25 42 -15 4 -32 1 -40 -6 -13 -11 -15 -7 -15 24 0 37 -8 41 -50 30z"/>
<path d="M1598 783 c-20 -5 -23 -18 -8 -28 13 -8 13 -91 0 -116 -12 -21 -15 -20 80 -24 30 -1 67 0 82 2 27 4 27 5 11 29 -12 19 -13 28 -5 36 9 9 15 7 26 -8 14 -18 15 -18 21 9 8 30 -13 66 -22 40 -8 -22 -23 -14 -23 12 0 20 5 25 24 25 14 0 28 -4 31 -10 11 -18 26 -10 23 12 -3 20 -9 22 -80 23 -59 2 -78 -1 -78 -11 0 -7 5 -16 10 -19 15 -9 12 -101 -4 -114 -24 -20 -38 12 -35 81 4 67 -3 75 -53 61z"/>
<path d="M970 720 c-49 -49 8 -125 75 -100 32 12 32 30 0 30 -29 0 -53 36 -36 53 8 8 14 8 23 -1 17 -17 48 -15 48 3 0 36 -78 47 -110 15z"/>
<path d="M1302 730 c-29 -12 -46 -54 -31 -81 22 -43 96 -45 127 -4 l17 23 21 -26 c39 -48 134 -24 134 35 0 64 -82 84 -131 32 -16 -17 -29 -26 -29 -20 0 19 -39 51 -62 50 -13 0 -33 -4 -46 -9z m48 -56 c0 -19 -4 -34 -9 -34 -12 0 -25 56 -16 70 12 19 25 0 25 -36z m160 -6 c0 -16 -4 -28 -10 -28 -13 0 -24 46 -16 67 6 15 8 15 16 3 6 -8 10 -27 10 -42z"/>
<path d="M1863 728 c-13 -6 -23 -15 -23 -20 0 -12 24 -10 38 4 9 9 15 9 23 1 16 -16 2 -33 -26 -33 -14 0 -29 -8 -35 -19 -16 -30 9 -48 61 -45 24 2 50 3 56 3 18 1 5 93 -15 109 -19 14 -49 15 -79 0z m47 -73 c0 -8 -4 -15 -10 -15 -5 0 -10 7 -10 15 0 8 5 15 10 15 6 0 10 -7 10 -15z"/>
<path d="M2012 724 c-18 -12 -22 -24 -20 -52 4 -47 39 -68 87 -51 40 14 40 27 0 25 -43 -2 -50 22 -7 26 38 4 51 34 22 55 -24 17 -55 16 -82 -3z m50 -19 c0 -5 -5 -11 -11 -13 -6 -2 -11 4 -11 13 0 9 5 15 11 13 6 -2 11 -8 11 -13z"/>
</g>
</svg>